<svg width="821" height="207" viewBox="0 0 821 207" fill="none" xmlns="http://www.w3.org/2000/svg">
<path d="M806.981 151.312C806.981 188.688 780.869 206.864 733.253 206.864C684.357 206.864 655.685 186.128 655.685 156.176C655.685 135.44 671.557 116.24 694.085 116.24C713.541 143.888 742.725 169.232 767.045 185.36L767.301 184.848C728.133 150.288 682.565 111.376 682.565 68.6241C682.565 33.8081 718.661 16.9121 753.989 16.9121C787.781 16.9121 820.549 32.2721 820.549 61.4561C820.549 75.5361 808.261 89.3601 793.669 97.2961C770.629 71.9521 749.125 58.6401 722.501 42.7681L722.245 43.0241C766.789 74.5121 806.981 106.512 806.981 151.312Z" fill="white"/>
<path d="M648.481 151.312C648.481 188.688 622.369 206.864 574.753 206.864C525.857 206.864 497.185 186.128 497.185 156.176C497.185 135.44 513.057 116.24 535.585 116.24C555.041 143.888 584.225 169.232 608.545 185.36L608.801 184.848C569.633 150.288 524.065 111.376 524.065 68.6241C524.065 33.8081 560.161 16.9121 595.489 16.9121C629.281 16.9121 662.049 32.2721 662.049 61.4561C662.049 75.5361 649.761 89.3601 635.169 97.2961C612.129 71.9521 590.625 58.6401 564.001 42.7681L563.745 43.0241C608.289 74.5121 648.481 106.512 648.481 151.312Z" fill="white"/>
<path d="M412.675 206.864C365.059 206.864 340.995 170.768 340.995 122.128C340.995 55.3121 386.307 16.9121 417.539 16.9121C430.083 16.9121 438.019 22.2881 441.347 29.2001C437.251 33.2961 432.131 39.4401 429.571 46.8641L430.083 47.3761C439.811 32.5281 455.427 24.0801 468.483 24.0801C494.595 24.0801 503.555 53.5201 503.555 82.1921C503.555 140.048 475.395 206.864 412.675 206.864ZM423.171 67.6001H422.659C413.187 81.1681 409.347 98.0641 409.347 111.888C409.347 126.992 413.955 138.768 420.611 138.768C424.451 138.768 426.243 134.416 427.011 130.064C420.611 124.944 416.771 117.264 416.771 104.208C416.771 94.9921 418.563 82.9601 423.171 67.6001Z" fill="white"/>
<path d="M241.325 86.5439H241.837C254.125 55.8239 275.885 16.9119 304.557 16.9119C327.341 16.9119 339.885 38.1599 339.885 66.5759C339.885 106.512 313.261 156.176 269.997 156.176H269.741V156.688C271.533 156.944 273.325 156.944 274.861 156.944C289.709 156.944 303.789 150.8 312.749 143.376C315.053 145.936 319.149 146.96 321.709 146.96C330.413 146.96 338.349 138.256 342.957 130.832C347.565 130.832 349.869 137.232 349.869 143.888C349.869 174.864 324.525 206.864 291.757 206.864C259.757 206.864 251.565 182.544 249.005 154.384C230.829 150.032 209.581 141.072 192.685 126.992L192.429 127.248C202.925 139.792 225.965 150.8 236.461 155.408C236.973 166.16 239.021 175.888 241.837 186.128C234.669 196.368 221.357 206.864 208.813 206.864C188.589 206.864 167.853 189.968 167.853 138.256C167.853 115.472 173.485 85.2639 179.373 67.3439C187.565 70.4159 196.525 71.6959 204.973 71.6959C209.069 71.6959 211.885 71.4399 211.885 71.4399V70.9279C179.885 67.0879 160.685 49.9359 160.685 22.7999C160.685 16.3999 161.709 8.97594 164.269 0.783936C188.333 17.1679 223.149 23.8239 248.237 23.8239C253.357 23.8239 261.293 23.0559 261.293 23.0559C251.821 41.4879 244.909 62.9919 241.325 86.5439ZM269.741 75.0239H269.229C258.477 92.9439 247.469 112.4 237.741 135.184C249.517 135.184 265.389 99.3439 269.741 75.0239Z" fill="white"/>
<path d="M181.231 115.472C181.231 146.96 151.535 206.864 87.5351 206.864C33.2631 206.864 0.495117 170 0.495117 119.824C0.495117 62.9921 36.3351 16.9121 89.5831 16.9121C130.031 16.9121 154.351 42.2561 154.351 74.5121C154.351 108.048 127.727 129.808 101.103 129.808C79.5991 129.808 72.9431 115.728 72.9431 98.0641C72.9431 75.5361 82.6711 48.6561 93.1671 28.9441H92.6551C80.1111 48.4001 68.5911 77.3281 68.5911 101.136C68.5911 120.592 76.7831 135.184 102.895 135.184C128.751 135.184 159.471 120.848 174.831 105.488C179.183 106.256 181.231 110.096 181.231 115.472Z" fill="white"/>
</svg>
