<svg width="1641" height="413" viewBox="0 0 1641 413" fill="none" xmlns="http://www.w3.org/2000/svg">
<path d="M1612.96 301.624C1612.96 376.376 1560.74 412.728 1465.51 412.728C1367.71 412.728 1310.37 371.256 1310.37 311.352C1310.37 269.88 1342.11 231.48 1387.17 231.48C1426.08 286.776 1484.45 337.464 1533.09 369.72L1533.6 368.696C1455.27 299.576 1364.13 221.752 1364.13 136.248C1364.13 66.616 1436.32 32.824 1506.98 32.824C1574.56 32.824 1640.1 63.544 1640.1 121.912C1640.1 150.072 1615.52 177.72 1586.34 193.592C1540.26 142.904 1497.25 116.28 1444 84.536L1443.49 85.048C1532.58 148.024 1612.96 212.024 1612.96 301.624Z" fill="white"/>
<path d="M1295.96 301.624C1295.96 376.376 1243.74 412.728 1148.51 412.728C1050.71 412.728 993.37 371.256 993.37 311.352C993.37 269.88 1025.11 231.48 1070.17 231.48C1109.08 286.776 1167.45 337.464 1216.09 369.72L1216.6 368.696C1138.27 299.576 1047.13 221.752 1047.13 136.248C1047.13 66.616 1119.32 32.824 1189.98 32.824C1257.56 32.824 1323.1 63.544 1323.1 121.912C1323.1 150.072 1298.52 177.72 1269.34 193.592C1223.26 142.904 1180.25 116.28 1127 84.536L1126.49 85.048C1215.58 148.024 1295.96 212.024 1295.96 301.624Z" fill="white"/>
<path d="M824.35 412.728C729.118 412.728 680.99 340.536 680.99 243.256C680.99 109.624 771.614 32.824 834.078 32.824C859.166 32.824 875.038 43.576 881.694 57.4C873.502 65.592 863.262 77.88 858.142 92.728L859.166 93.752C878.622 64.056 909.854 47.16 935.966 47.16C988.19 47.16 1006.11 106.04 1006.11 163.384C1006.11 279.096 949.79 412.728 824.35 412.728ZM845.342 134.2H844.318C825.374 161.336 817.694 195.128 817.694 222.776C817.694 252.984 826.91 276.536 840.222 276.536C847.902 276.536 851.486 267.832 853.022 259.128C840.222 248.888 832.542 233.528 832.542 207.416C832.542 188.984 836.126 164.92 845.342 134.2Z" fill="white"/>
<path d="M481.65 172.088H482.674C507.25 110.648 550.77 32.8239 608.114 32.8239C653.682 32.8239 678.77 75.3199 678.77 132.152C678.77 212.024 625.522 311.352 538.994 311.352H538.482V312.376C542.066 312.888 545.65 312.888 548.722 312.888C578.418 312.888 606.578 300.6 624.498 285.752C629.106 290.872 637.298 292.92 642.418 292.92C659.826 292.92 675.698 275.512 684.914 260.664C694.13 260.664 698.738 273.464 698.738 286.776C698.738 348.728 648.05 412.728 582.514 412.728C518.514 412.728 502.13 364.088 497.01 307.768C460.658 299.064 418.162 281.144 384.37 252.984L383.858 253.496C404.85 278.584 450.93 300.6 471.922 309.816C472.946 331.32 477.042 350.776 482.674 371.256C468.338 391.736 441.714 412.728 416.626 412.728C376.178 412.728 334.706 378.936 334.706 275.512C334.706 229.944 345.97 169.528 357.746 133.688C374.13 139.832 392.05 142.392 408.946 142.392C417.138 142.392 422.77 141.88 422.77 141.88V140.856C358.77 133.176 320.37 98.8719 320.37 44.5999C320.37 31.7999 322.418 16.9519 327.538 0.567871C375.666 33.3358 445.298 46.6479 495.474 46.6479C505.714 46.6479 521.586 45.1118 521.586 45.1118C502.642 81.9759 488.818 124.984 481.65 172.088ZM538.482 149.048H537.458C515.954 184.888 493.938 223.8 474.482 269.368C498.034 269.368 529.778 197.688 538.482 149.048Z" fill="white"/>
<path d="M361.462 229.944C361.462 292.92 302.07 412.728 174.07 412.728C65.526 412.728 -0.0100098 339 -0.0100098 238.648C-0.0100098 124.984 71.67 32.824 178.166 32.824C259.062 32.824 307.702 83.512 307.702 148.024C307.702 215.096 254.454 258.616 201.206 258.616C158.198 258.616 144.886 230.456 144.886 195.128C144.886 150.072 164.342 96.312 185.334 56.888H184.31C159.222 95.8 136.182 153.656 136.182 201.272C136.182 240.184 152.566 269.368 204.79 269.368C256.502 269.368 317.942 240.696 348.662 209.976C357.366 211.512 361.462 219.192 361.462 229.944Z" fill="white"/>
</svg>
